<svg width="25" height="25" viewBox="0 0 25 25" fill="none" xmlns="http://www.w3.org/2000/svg">
<path d="M20.5358 8.92854C20.5358 13.375 12.5001 24.1071 12.5001 24.1071C12.5001 24.1071 4.46436 13.375 4.46436 8.92854C4.46436 6.79733 5.31097 4.75342 6.81796 3.24643C8.32495 1.73944 10.3689 0.892822 12.5001 0.892822C14.6313 0.892822 16.6752 1.73944 18.1822 3.24643C19.6892 4.75342 20.5358 6.79733 20.5358 8.92854Z" stroke="#334881" stroke-width="1.71429" stroke-linecap="round" stroke-linejoin="round"/>
<path d="M12.4999 11.6071C13.9792 11.6071 15.1784 10.4079 15.1784 8.92857C15.1784 7.44924 13.9792 6.25 12.4999 6.25C11.0205 6.25 9.82129 7.44924 9.82129 8.92857C9.82129 10.4079 11.0205 11.6071 12.4999 11.6071Z" stroke="#334881" stroke-width="1.71429" stroke-linecap="round" stroke-linejoin="round"/>
</svg>
