<svg width="25" height="25" viewBox="0 0 25 25" fill="none" xmlns="http://www.w3.org/2000/svg">
<path d="M4.16683 20.8333C3.59391 20.8333 3.10329 20.6291 2.69496 20.2208C2.28662 19.8125 2.0828 19.3222 2.0835 18.75V6.24996C2.0835 5.67704 2.28766 5.18642 2.696 4.77809C3.10433 4.36975 3.59461 4.16593 4.16683 4.16663H20.8335C21.4064 4.16663 21.897 4.37079 22.3054 4.77913C22.7137 5.18746 22.9175 5.67774 22.9168 6.24996V18.75C22.9168 19.3229 22.7127 19.8135 22.3043 20.2218C21.896 20.6302 21.4057 20.834 20.8335 20.8333H4.16683ZM20.8335 8.33329L13.047 13.2031C12.9602 13.2552 12.8689 13.2944 12.7731 13.3208C12.6772 13.3472 12.5863 13.36 12.5002 13.3593C12.4134 13.3593 12.322 13.3465 12.2262 13.3208C12.1304 13.2951 12.0394 13.2559 11.9533 13.2031L4.16683 8.33329V18.75H20.8335V8.33329ZM12.5002 11.4583L20.8335 6.24996H4.16683L12.5002 11.4583ZM4.16683 8.59371V7.05725V7.08329V7.07079V8.59371Z" fill="#334881"/>
</svg>
