<svg width="127" height="53" viewBox="0 0 127 53" fill="none" xmlns="http://www.w3.org/2000/svg">
<path d="M31.3923 5.6906L26 2.57735C24.1436 1.50555 21.8564 1.50555 20 2.57735L14.6077 5.6906C12.7513 6.7624 11.6077 8.74316 11.6077 10.8868V17.1132C11.6077 19.2568 12.7513 21.2376 14.6077 22.3094L20 25.4226C21.8564 26.4944 24.1436 26.4944 26 25.4226L31.3923 22.3094C33.2487 21.2376 34.3923 19.2568 34.3923 17.1132V10.8868C34.3923 8.74316 33.2487 6.7624 31.3923 5.6906Z" stroke="#334881" stroke-width="2"/>
<path d="M21.3923 18.6906L16 15.5774C14.1436 14.5056 11.8564 14.5056 10 15.5774L4.6077 18.6906C2.75129 19.7624 1.6077 21.7432 1.6077 23.8868V30.1132C1.6077 32.2568 2.75129 34.2376 4.6077 35.3094L10 38.4226C11.8564 39.4944 14.1436 39.4944 16 38.4226L21.3923 35.3094C23.2487 34.2376 24.3923 32.2568 24.3923 30.1132V23.8868C24.3923 21.7432 23.2487 19.7624 21.3923 18.6906Z" stroke="#7FBDC8" stroke-width="2"/>
<path d="M31.3923 30.6906L26 27.5774C24.1436 26.5056 21.8564 26.5056 20 27.5774L14.6077 30.6906C12.7513 31.7624 11.6077 33.7432 11.6077 35.8868V42.1132C11.6077 44.2568 12.7513 46.2376 14.6077 47.3094L20 50.4226C21.8564 51.4944 24.1436 51.4944 26 50.4226L31.3923 47.3094C33.2487 46.2376 34.3923 44.2568 34.3923 42.1132V35.8868C34.3923 33.7432 33.2487 31.7624 31.3923 30.6906Z" stroke="#334881" stroke-width="2"/>
<path d="M41.232 33.5V21.58H46.256C47.0027 21.58 47.648 21.7133 48.192 21.98C48.736 22.236 49.152 22.6093 49.44 23.1C49.728 23.58 49.872 24.1507 49.872 24.812C49.872 25.388 49.7227 25.916 49.424 26.396C49.136 26.8653 48.6827 27.2387 48.064 27.516V26.716C48.608 26.9293 49.0507 27.2013 49.392 27.532C49.7333 27.852 49.9787 28.2147 50.128 28.62C50.288 29.0253 50.368 29.452 50.368 29.9C50.368 31.02 50 31.9 49.264 32.54C48.5387 33.18 47.5413 33.5 46.272 33.5H41.232ZM43.12 31.82H46.416C47.0453 31.82 47.5467 31.6493 47.92 31.308C48.2933 30.956 48.48 30.492 48.48 29.916C48.48 29.3293 48.2933 28.8653 47.92 28.524C47.5467 28.172 47.0453 27.996 46.416 27.996H43.12V31.82ZM43.12 26.332H46.304C46.816 26.332 47.2267 26.188 47.536 25.9C47.8453 25.6013 48 25.212 48 24.732C48 24.252 47.8453 23.8787 47.536 23.612C47.2267 23.3453 46.816 23.212 46.304 23.212H43.12V26.332ZM55.2221 33.692C54.5715 33.692 54.0008 33.548 53.5101 33.26C53.0195 32.9613 52.6355 32.5507 52.3581 32.028C52.0915 31.4947 51.9581 30.8813 51.9581 30.188V24.844H53.7661V30.028C53.7661 30.4227 53.8461 30.7693 54.0061 31.068C54.1661 31.3667 54.3901 31.6013 54.6781 31.772C54.9661 31.932 55.2968 32.012 55.6701 32.012C56.0541 32.012 56.3901 31.9267 56.6781 31.756C56.9661 31.5853 57.1901 31.3453 57.3501 31.036C57.5208 30.7267 57.6061 30.364 57.6061 29.948V24.844H59.3981V33.5H57.6861V31.804L57.8781 32.028C57.6755 32.5613 57.3395 32.972 56.8701 33.26C56.4008 33.548 55.8515 33.692 55.2221 33.692ZM66.1331 33.692C65.4611 33.692 64.8478 33.5533 64.2931 33.276C63.7491 32.9987 63.3278 32.5987 63.0291 32.076L63.2371 31.74V33.5H61.5091V21.388H63.3171V26.636L63.0291 26.22C63.3491 25.7293 63.7758 25.3453 64.3091 25.068C64.8425 24.7907 65.4505 24.652 66.1331 24.652C66.9545 24.652 67.6905 24.8493 68.3411 25.244C69.0025 25.6387 69.5198 26.1773 69.8931 26.86C70.2771 27.5427 70.4691 28.3107 70.4691 29.164C70.4691 30.0173 70.2771 30.7853 69.8931 31.468C69.5198 32.1507 69.0078 32.6947 68.3571 33.1C67.7065 33.4947 66.9651 33.692 66.1331 33.692ZM65.9571 32.012C66.4691 32.012 66.9225 31.8893 67.3171 31.644C67.7118 31.3987 68.0211 31.0627 68.2451 30.636C68.4798 30.1987 68.5971 29.708 68.5971 29.164C68.5971 28.62 68.4798 28.1347 68.2451 27.708C68.0211 27.2813 67.7118 26.9453 67.3171 26.7C66.9225 26.4547 66.4691 26.332 65.9571 26.332C65.4558 26.332 65.0025 26.4547 64.5971 26.7C64.2025 26.9453 63.8878 27.2813 63.6531 27.708C63.4291 28.1347 63.3171 28.62 63.3171 29.164C63.3171 29.708 63.4291 30.1987 63.6531 30.636C63.8878 31.0627 64.2025 31.3987 64.5971 31.644C65.0025 31.8893 65.4558 32.012 65.9571 32.012ZM76.8519 33.692C76.1799 33.692 75.5665 33.5533 75.0119 33.276C74.4679 32.9987 74.0465 32.5987 73.7479 32.076L73.9559 31.74V33.5H72.2279V21.388H74.0359V26.636L73.7479 26.22C74.0679 25.7293 74.4945 25.3453 75.0279 25.068C75.5612 24.7907 76.1692 24.652 76.8519 24.652C77.6732 24.652 78.4092 24.8493 79.0599 25.244C79.7212 25.6387 80.2385 26.1773 80.6119 26.86C80.9959 27.5427 81.1879 28.3107 81.1879 29.164C81.1879 30.0173 80.9959 30.7853 80.6119 31.468C80.2385 32.1507 79.7265 32.6947 79.0759 33.1C78.4252 33.4947 77.6839 33.692 76.8519 33.692ZM76.6759 32.012C77.1879 32.012 77.6412 31.8893 78.0359 31.644C78.4305 31.3987 78.7399 31.0627 78.9639 30.636C79.1985 30.1987 79.3159 29.708 79.3159 29.164C79.3159 28.62 79.1985 28.1347 78.9639 27.708C78.7399 27.2813 78.4305 26.9453 78.0359 26.7C77.6412 26.4547 77.1879 26.332 76.6759 26.332C76.1745 26.332 75.7212 26.4547 75.3159 26.7C74.9212 26.9453 74.6065 27.2813 74.3719 27.708C74.1479 28.1347 74.0359 28.62 74.0359 29.164C74.0359 29.708 74.1479 30.1987 74.3719 30.636C74.6065 31.0627 74.9212 31.3987 75.3159 31.644C75.7212 31.8893 76.1745 32.012 76.6759 32.012ZM82.9466 33.5V21.388H84.7546V33.5H82.9466ZM90.9325 33.692C90.0685 33.692 89.3005 33.4947 88.6285 33.1C87.9672 32.6947 87.4498 32.1507 87.0765 31.468C86.7032 30.7747 86.5165 30.0013 86.5165 29.148C86.5165 28.2733 86.7032 27.5 87.0765 26.828C87.4605 26.156 87.9725 25.628 88.6125 25.244C89.2525 24.8493 89.9778 24.652 90.7885 24.652C91.4392 24.652 92.0205 24.764 92.5325 24.988C93.0445 25.212 93.4765 25.5213 93.8285 25.916C94.1805 26.3 94.4472 26.7427 94.6285 27.244C94.8205 27.7453 94.9165 28.2787 94.9165 28.844C94.9165 28.9827 94.9112 29.1267 94.9005 29.276C94.8898 29.4253 94.8685 29.564 94.8365 29.692H87.9405V28.252H93.8125L92.9485 28.908C93.0552 28.3853 93.0178 27.9213 92.8365 27.516C92.6658 27.1 92.3992 26.7747 92.0365 26.54C91.6845 26.2947 91.2685 26.172 90.7885 26.172C90.3085 26.172 89.8818 26.2947 89.5085 26.54C89.1352 26.7747 88.8472 27.116 88.6445 27.564C88.4418 28.0013 88.3618 28.5347 88.4045 29.164C88.3512 29.7507 88.4312 30.2627 88.6445 30.7C88.8685 31.1373 89.1778 31.4787 89.5725 31.724C89.9778 31.9693 90.4365 32.092 90.9485 32.092C91.4712 32.092 91.9138 31.9747 92.2765 31.74C92.6498 31.5053 92.9432 31.2013 93.1565 30.828L94.6285 31.548C94.4578 31.9533 94.1912 32.3213 93.8285 32.652C93.4765 32.972 93.0498 33.228 92.5485 33.42C92.0578 33.6013 91.5192 33.692 90.9325 33.692ZM99.6539 33.5V21.58H103.99C104.79 21.58 105.494 21.7293 106.102 22.028C106.721 22.316 107.201 22.7427 107.542 23.308C107.883 23.8627 108.054 24.5293 108.054 25.308C108.054 26.076 107.878 26.7373 107.526 27.292C107.185 27.8467 106.71 28.2733 106.102 28.572C105.494 28.8707 104.79 29.02 103.99 29.02H101.542V33.5H99.6539ZM101.542 27.34H104.038C104.465 27.34 104.838 27.2547 105.158 27.084C105.478 26.9133 105.729 26.6787 105.91 26.38C106.091 26.0707 106.182 25.708 106.182 25.292C106.182 24.876 106.091 24.5187 105.91 24.22C105.729 23.9107 105.478 23.676 105.158 23.516C104.838 23.3453 104.465 23.26 104.038 23.26H101.542V27.34ZM111.851 33.692C111.264 33.692 110.747 33.5907 110.299 33.388C109.862 33.1747 109.52 32.8867 109.275 32.524C109.03 32.1507 108.907 31.7133 108.907 31.212C108.907 30.7427 109.008 30.3213 109.211 29.948C109.424 29.5747 109.75 29.26 110.187 29.004C110.624 28.748 111.174 28.5667 111.835 28.46L114.843 27.964V29.388L112.187 29.852C111.707 29.9373 111.355 30.092 111.131 30.316C110.907 30.5293 110.795 30.8067 110.795 31.148C110.795 31.4787 110.918 31.7507 111.163 31.964C111.419 32.1667 111.744 32.268 112.139 32.268C112.63 32.268 113.056 32.1613 113.419 31.948C113.792 31.7347 114.08 31.452 114.283 31.1C114.486 30.7373 114.587 30.3373 114.587 29.9V27.676C114.587 27.2493 114.427 26.9027 114.107 26.636C113.798 26.3587 113.382 26.22 112.859 26.22C112.379 26.22 111.958 26.348 111.595 26.604C111.243 26.8493 110.982 27.1693 110.811 27.564L109.307 26.812C109.467 26.3853 109.728 26.012 110.091 25.692C110.454 25.3613 110.875 25.1053 111.355 24.924C111.846 24.7427 112.363 24.652 112.907 24.652C113.59 24.652 114.192 24.78 114.715 25.036C115.248 25.292 115.659 25.6493 115.947 26.108C116.246 26.556 116.395 27.0787 116.395 27.676V33.5H114.667V31.932L115.035 31.98C114.832 32.332 114.571 32.636 114.251 32.892C113.942 33.148 113.584 33.3453 113.179 33.484C112.784 33.6227 112.342 33.692 111.851 33.692ZM119.277 37.036C119.064 37.036 118.85 37.0147 118.637 36.972C118.434 36.94 118.248 36.8867 118.077 36.812V35.26C118.205 35.292 118.36 35.3187 118.541 35.34C118.722 35.372 118.898 35.388 119.069 35.388C119.57 35.388 119.938 35.276 120.173 35.052C120.418 34.8387 120.637 34.5027 120.829 34.044L121.405 32.732L121.373 34.252L117.629 24.844H119.565L122.333 32.06H121.677L124.429 24.844H126.381L122.557 34.444C122.354 34.956 122.098 35.404 121.789 35.788C121.49 36.1827 121.133 36.4867 120.717 36.7C120.312 36.924 119.832 37.036 119.277 37.036Z" fill="#334881"/>
</svg>
